<?xml version="1.0" encoding="UTF-8" standalone="no"?>
<svg
   xmlns:dc="http://purl.org/dc/elements/1.1/"
   xmlns:cc="http://creativecommons.org/ns#"
   xmlns:rdf="http://www.w3.org/1999/02/22-rdf-syntax-ns#"
   xmlns:svg="http://www.w3.org/2000/svg"
   xmlns="http://www.w3.org/2000/svg"
   id="svg4022"
   viewBox="0 0 48 48"
   version="1.1">
  <metadata
     id="metadata4026">
    <rdf:RDF>
      <cc:Work
         rdf:about="">
        <dc:format>image/svg+xml</dc:format>
        <dc:type
           rdf:resource="http://purl.org/dc/dcmitype/StillImage" />
        <dc:title></dc:title>
      </cc:Work>
    </rdf:RDF>
  </metadata>
  <defs
     id="defs4000">
    <marker
       style="overflow:visible"
       id="Arrow1Lstart"
       refX="0.0"
       refY="0.0"
       orient="auto">
      <path
         transform="scale(0.8) translate(12.5,0)"
         style="fill-rule:evenodd;stroke:#000000;stroke-width:1.0pt"
         d="M 0.0,0.0 L 5.0,-5.0 L -12.5,0.0 L 5.0,5.0 L 0.0,0.0 z "
         id="path4897" />
    </marker>
    <linearGradient
       gradientUnits="userSpaceOnUse"
       y2="47"
       y1="1"
       x2="0"
       id="bg">
      <stop
         id="stop3995"
         offset="0"
         style="stop-color:#f2eaca" />
      <stop
         id="stop3997"
         offset="1"
         style="stop-color:#eee3ba" />
    </linearGradient>
    <linearGradient
       gradientTransform="translate(17.676491,-49.529413)"
       id="linearGradient4501"
       x1="-47"
       x2="-1"
       y1="2.8779e-15"
       y2="6.1232e-17"
       gradientUnits="userSpaceOnUse">
      <stop
         style="stop-color:#facb50"
         offset="0"
         id="stop4837" />
      <stop
         style="stop-color:#fbd163"
         offset="1"
         id="stop4839" />
    </linearGradient>
    <filter
       id="filter5549"
       style="color-interpolation-filters:sRGB;">
      <feFlood
         id="feFlood5539"
         result="flood"
         flood-color="rgb(0,0,0)"
         flood-opacity="0.156863" />
      <feComposite
         id="feComposite5541"
         result="composite1"
         operator="in"
         in2="SourceGraphic"
         in="flood" />
      <feGaussianBlur
         id="feGaussianBlur5543"
         result="blur"
         stdDeviation="0"
         in="composite1" />
      <feOffset
         id="feOffset5545"
         result="offset"
         dy="1"
         dx="0" />
      <feComposite
         id="feComposite5547"
         result="composite2"
         operator="over"
         in2="offset"
         in="SourceGraphic" />
    </filter>
  </defs>
  <path
     id="path4002"
     style="opacity:.02"
     d="m1 43v0.25c0 2.216 1.784 4 4 4h38c2.216 0 4-1.784 4-4v-0.25c0 2.216-1.784 4-4 4h-38c-2.216 0-4-1.784-4-4zm0 0.5v0.5c0 2.216 1.784 4 4 4h38c2.216 0 4-1.784 4-4v-0.5c0 2.216-1.784 4-4 4h-38c-2.216 0-4-1.784-4-4z" />
  <path
     id="path4004"
     style="opacity:.05"
     d="m1 43.25v0.25c0 2.216 1.784 4 4 4h38c2.216 0 4-1.784 4-4v-0.25c0 2.216-1.784 4-4 4h-38c-2.216 0-4-1.784-4-4z" />
  <path
     id="path4006"
     style="opacity:.1"
     d="m1 43v0.25c0 2.216 1.784 4 4 4h38c2.216 0 4-1.784 4-4v-0.25c0 2.216-1.784 4-4 4h-38c-2.216 0-4-1.784-4-4z" />
  <rect
     id="rect4008"
     style="fill:#17a925;fill-opacity:1"
     rx="4"
     height="46"
     width="46"
     y="1"
     x="1" />
  <path
     id="path4010"
     style="opacity:0.9;fill:#86382a;fill-opacity:0.97254902"
     d="m1 39v4c0 2.216 1.784 4 4 4h38c2.216 0 4-1.784 4-4v-4c0 2.216-1.784 4-4 4h-38c-2.216 0-4-1.784-4-4z" />
  <text
     id="text4835"
     y="32.672001"
     x="24.165751"
     style="font-style:normal;font-variant:normal;font-weight:normal;font-stretch:normal;font-size:40px;line-height:1.25;font-family:ubuntu;-inkscape-font-specification:ubuntu;letter-spacing:0px;word-spacing:0px;fill:#fafa01;fill-opacity:1;stroke:none;stroke-width:0.1;stroke-miterlimit:4;stroke-dasharray:none;filter:url(#filter5549)"
     xml:space="preserve"><tspan
       style="font-style:normal;font-variant:normal;font-weight:bold;font-stretch:normal;font-size:32px;font-family:Ubuntu;-inkscape-font-specification:'Ubuntu Bold';text-align:center;text-anchor:middle;fill:#fafa01;fill-opacity:1;stroke-width:0.1;stroke-miterlimit:4;stroke-dasharray:none"
       y="32.672001"
       x="24.165751"
       id="tspan4833">$</tspan></text>
  <rect
     y="4.467217"
     x="6.4672155"
     height="35.065567"
     width="35.065567"
     id="rect4895"
     style="opacity:0.93999999;fill:none;fill-opacity:1;stroke:#000000;stroke-width:1.09599996;stroke-miterlimit:4;stroke-dasharray:3.28799987,1.09599996;stroke-dashoffset:10.37911958;stroke-opacity:0.50188826;paint-order:markers fill stroke" />
</svg>
